
<svg xmlns="http://www.w3.org/2000/svg" version="1.1" xmlns:xlink="http://www.w3.org/1999/xlink" preserveAspectRatio="none" x="0px" y="0px" width="19px" height="19px" viewBox="0 0 19 19">
<defs>
<g id="smilies_smileback_0_Layer2_0_FILL">
<path fill="#000000" stroke="none" d="
M 16.2 2.75
Q 15.555078125 2.1087890625 14.85 1.6 12.4962890625 -0.03125 9.45 -0.05 9.0818359375 -0.02578125 8.7 0 6.2634765625 0.176171875 4.3 1.5 3.49375 2.03203125 2.75 2.75 2.47109375 3.054296875 2.2 3.35 -0.02109375 5.9759765625 -0.05 9.45 -0.020703125 13.3880859375 2.75 16.15 5.4009765625 18.809375 9 18.95 9.24921875 18.9748046875 9.45 18.95 13.4005859375 18.970703125 16.2 16.15 18.4962890625 13.8755859375 18.9 10.8 18.9763671875 10.159375 18.95 9.45 18.9830078125 5.5494140625 16.2 2.75 Z"/>
</g>

<g id="app_0_Layer0_0_FILL">
<path fill="#CC0000" stroke="none" d="
M -0.65 5.65
L -0.65 0.45 -5.85 0.45 -5.85 5.65 -0.65 5.65 Z"/>

<path fill="#02A9D2" stroke="none" d="
M -5.85 -0.55
L -0.65 -0.55 -0.65 -5.8 -5.85 -5.8 -5.85 -0.55 Z"/>

<path fill="#F9C931" stroke="none" d="
M 5.8 0.45
L 0.65 0.45 0.65 5.65 5.8 5.65 5.8 0.45 Z"/>

<path fill="#9900CC" stroke="none" d="
M 0.65 -5.8
L 0.65 -0.55 5.8 -0.55 5.85 -5.8 0.65 -5.8 Z"/>
</g>
</defs>

<g transform="matrix( 0.93408203125, 0, 0, 0.9161834716796875, 9.5,9.5) ">
<g transform="matrix( 1, 0, 0, 1, -9.5,-9.45) ">
<g transform="matrix( 1, 0, 0, 1, 0,0) ">
<g transform="matrix( 1, 0, 0, 1, 0,0) ">
<use xlink:href="#smilies_smileback_0_Layer2_0_FILL"/>
</g>
</g>
</g>

<g transform="matrix( 1, 0, 0, 1, 0,0) ">
<use xlink:href="#app_0_Layer0_0_FILL"/>
</g>
</g>
</svg>
