
<svg xmlns="http://www.w3.org/2000/svg" version="1.1" xmlns:xlink="http://www.w3.org/1999/xlink" preserveAspectRatio="none" x="0px" y="0px" width="20px" height="20px" viewBox="0 0 20 20">
<defs>
<g id="Layer1_0_FILL">
<path fill="#FFFFFF" stroke="none" d="
M 0.8 10.05
Q 9.75 20.75 19.2 10.05 9.75 -0.6 0.8 10.05
M 12.2 7.85
Q 13.1 8.75 13.1 10.05 13.1 11.3 12.2 12.2 11.3 13.1 10.05 13.1 8.75 13.1 7.85 12.2 6.95 11.3 6.95 10.05 6.95 8.75 7.85 7.85 8.75 6.95 10.05 6.95 11.3 6.95 12.2 7.85
M 13.1 10.05
Q 13.1 8.75 12.2 7.85 11.3 6.95 10.05 6.95 8.75 6.95 7.85 7.85 6.95 8.75 6.95 10.05 6.95 11.3 7.85 12.2 8.75 13.1 10.05 13.1 11.3 13.1 12.2 12.2 13.1 11.3 13.1 10.05 Z"/>
</g>

<path id="Layer1_0_1_STROKES" stroke="#999999" stroke-width="1.5" stroke-linejoin="round" stroke-linecap="round" fill="none" d="
M 13.1 10.05
Q 13.1 11.3 12.2 12.2 11.3 13.1 10.05 13.1 8.75 13.1 7.85 12.2 6.95 11.3 6.95 10.05 6.95 8.75 7.85 7.85 8.75 6.95 10.05 6.95 11.3 6.95 12.2 7.85 13.1 8.75 13.1 10.05 Z
M 19.2 10.05
Q 9.75 -0.6 0.8 10.05 9.75 20.75 19.2 10.05 Z"/>
</defs>

<g transform="matrix( 1, 0, 0, 1, 0,0) ">
<use xlink:href="#Layer1_0_FILL"/>

<use xlink:href="#Layer1_0_1_STROKES"/>
</g>
</svg>
