
<svg xmlns="http://www.w3.org/2000/svg" version="1.1" xmlns:xlink="http://www.w3.org/1999/xlink" preserveAspectRatio="none" x="0px" y="0px" width="20px" height="20px" viewBox="0 0 20 20">
<defs>
<g id="Layer1_0_FILL">
<path fill="#FFFFFF" stroke="none" d="
M 0.8 10.05
Q 9.75 20.75 19.2 10.05 9.75 -0.6 0.8 10.05
M 12.7 7.3
Q 13.844921875 8.4396484375 13.85 10.05 13.84921875 11.605859375 12.7 12.7 11.605859375 13.84921875 10.05 13.85 8.4396484375 13.844921875 7.3 12.7 6.2005859375 11.605859375 6.2 10.05 6.2048828125 8.4396484375 7.3 7.3 8.4396484375 6.2048828125 10.05 6.2 11.605859375 6.2005859375 12.7 7.3
M 12.35 10.05
Q 12.3548828125 9.06015625 11.65 8.35 10.9939453125 7.69921875 10.05 7.7 9.06015625 7.694921875 8.35 8.35 7.694921875 9.06015625 7.7 10.05 7.69921875 10.9939453125 8.35 11.65 9.06015625 12.3548828125 10.05 12.35 10.9939453125 12.3505859375 11.65 11.65 12.3505859375 10.9939453125 12.35 10.05 Z"/>
</g>

<path id="Layer1_0_1_STROKES" stroke="#FFFFFF" stroke-width="1" stroke-linejoin="round" stroke-linecap="round" fill="none" d="
M 19.2 10.05
Q 9.75 -0.6 0.8 10.05 9.75 20.75 19.2 10.05 Z"/>
</defs>

<g transform="matrix( 1, 0, 0, 1, 0,0) ">
<use xlink:href="#Layer1_0_FILL"/>

<use xlink:href="#Layer1_0_1_STROKES"/>
</g>
</svg>
