<?xml version="1.0" encoding="utf-8"?>
<!-- Generator: Adobe Illustrator 24.0.1, SVG Export Plug-In . SVG Version: 6.00 Build 0)  -->
<svg version="1.1" id="Capa_1" xmlns="http://www.w3.org/2000/svg" xmlns:xlink="http://www.w3.org/1999/xlink" x="0px" y="0px"
	 width="22px" height="22px" viewBox="0 0 22 22" style="enable-background:new 0 0 22 22;" xml:space="preserve">
<style type="text/css">
	.st0{fill:#FFFF00;}
	.st1{fill:#FFFFFF;}
</style>
<g id="Capa_3">
	<path class="st0" d="M17.3,21.8H4.7c-2.5,0-4.5-2-4.5-4.5V4.7c0-2.5,2-4.5,4.5-4.5h12.6c2.5,0,4.5,2,4.5,4.5v12.6
		C21.8,19.8,19.8,21.8,17.3,21.8z"/>
</g>
<g id="Capa_2_1_">
	<g>
		<path class="st1" d="M6.1,8.9C6.8,9.3,7,9.5,6.8,8.5c-0.1-1,0.2-4.7,3.9-4.8c-0.2,0,4.8-0.4,4.3,5c-0.1,0.7,1.2-0.5,1.9-0.3
			c0.3,0.1,0.6,0.3,0.6,0.8c0,0.5-0.4,0.7-1.2,1.2c-0.1,0.1-0.8,0.5-1.2,0.8c-0.1,0.1,0.7,2.7,2.9,3.2c1.3,0.3-1.3,1-1.5,1.2
			c-0.6,0.5-0.3,0.9-1.1,1.1c-0.6,0.1-1,0-1.9,0.5c-1,0.6-2.6,1.6-4.3,0.3c-1.6-1.3-3.7-0.5-3.5-1.3c0.2-1-2.2-1-1.9-1.6
			c0-0.1,0.5-0.3,0.8-0.4c0,0,2.2-0.8,2-2.7c0-0.1,0-0.2-0.1-0.2l-1.3-0.8c-0.4-0.3-0.8-0.6-0.7-1.2C4.7,8.7,5.4,8.4,6.1,8.9z"/>
		<path d="M11,18.5c-0.6,0-1.3-0.2-1.9-0.7c-0.8-0.6-1.7-0.7-2.4-0.8c-0.5,0-0.9-0.1-1.1-0.3c-0.1-0.1-0.1-0.2-0.1-0.5
			c0.1-0.3-0.3-0.4-1-0.7c-0.5-0.2-0.8-0.3-1-0.6c0-0.1-0.1-0.2,0-0.4c0.1-0.1,0.2-0.2,0.6-0.4c0.1-0.1,0.2-0.1,0.3-0.2
			c0.1,0,2-0.7,1.9-2.4L5,10.7C4.6,10.4,4.1,10,4.3,9.2c0.1-0.4,0.3-0.7,0.6-0.8c0.4-0.2,0.9-0.1,1.4,0.2l0.2,0.1c0,0,0,0,0,0
			c0-0.1,0-0.1,0-0.2C6.4,8,6.5,6.2,7.6,4.9C8.3,4,9.4,3.5,10.7,3.4c0,0,0,0,0,0c0.7,0,2.4,0.1,3.5,1.3c0.8,0.9,1.2,2.2,1.1,3.9
			c0.1,0,0.2-0.1,0.3-0.1C16.1,8.3,16.6,8,17,8.2c0.4,0.1,0.8,0.5,0.8,1.1c0,0.6-0.5,1-1.3,1.5c0,0-0.2,0.1-0.4,0.2
			c-0.2,0.1-0.5,0.3-0.7,0.5c0.2,0.5,0.9,2.3,2.7,2.8c0.1,0,0.6,0.1,0.6,0.5c0,0.4-0.6,0.7-1.5,1.1c-0.2,0.1-0.4,0.2-0.5,0.2
			c-0.2,0.1-0.3,0.3-0.3,0.4c-0.1,0.3-0.3,0.6-0.9,0.7c-0.2,0-0.3,0.1-0.5,0.1c-0.4,0-0.7,0.1-1.3,0.4l-0.1,0.1
			C13,18,12.1,18.5,11,18.5z M6.1,16.4c0,0,0.4,0,0.6,0.1c0.7,0.1,1.8,0.2,2.8,0.9c1.4,1.2,2.8,0.3,3.8-0.3l0.1-0.1
			c0.7-0.4,1.1-0.4,1.5-0.5c0.1,0,0.3,0,0.4-0.1c0.3-0.1,0.4-0.2,0.5-0.4c0.1-0.2,0.2-0.4,0.5-0.7c0.1-0.1,0.2-0.1,0.6-0.3
			c0.2-0.1,0.7-0.3,1-0.4c-2.2-0.6-3-2.9-3.1-3.4c0-0.2,0-0.3,0.1-0.4c0.2-0.2,0.6-0.4,0.8-0.6c0.2-0.1,0.3-0.2,0.4-0.2
			c0.8-0.5,1-0.7,1-1c0-0.4-0.4-0.5-0.4-0.5c-0.2-0.1-0.7,0.1-1,0.3c-0.4,0.2-0.7,0.3-1,0.2c-0.1-0.1-0.2-0.2-0.2-0.5
			c0.1-1.6-0.2-2.8-0.9-3.6c-1-1.1-2.5-1.2-3-1.1c0,0,0,0,0,0C9.6,4.1,8.7,4.5,8,5.2c-1,1.2-1,2.8-0.9,3.3C7.2,9,7.2,9.3,7,9.5
			c-0.2,0.2-0.5,0-0.8-0.2L6,9.1h0C5.7,9,5.4,8.9,5.2,9C5,9.1,4.9,9.2,4.9,9.4C4.8,9.7,5,9.9,5.4,10.2l0.1,0.1l1.3,0.8
			C6.9,11.2,7,11.5,7,11.6c0.1,1.7-1.4,2.7-2.2,3c-0.1,0-0.2,0.1-0.3,0.2c-0.1,0-0.1,0.1-0.2,0.1C4.4,14.9,4.6,15,4.7,15
			C5.3,15.2,6.3,15.5,6.1,16.4C6.1,16.4,6.1,16.4,6.1,16.4z"/>
	</g>
</g>
</svg>
