<?xml version="1.0" encoding="utf-8"?>
<!-- Generator: Adobe Illustrator 24.0.1, SVG Export Plug-In . SVG Version: 6.00 Build 0)  -->
<svg version="1.1" xmlns="http://www.w3.org/2000/svg" xmlns:xlink="http://www.w3.org/1999/xlink" x="0px" y="0px" width="22px"
	 height="22px" viewBox="0 0 22 22" style="enable-background:new 0 0 22 22;" xml:space="preserve">
<style type="text/css">
	.Sombra_x0020_paralela{fill:none;}
	.Resplandor_x0020_externo_x0020_5_x0020_pt_x002E_{fill:none;}
	.Neón_x0020_azul{fill:none;stroke:#8AACDA;stroke-width:7;stroke-linecap:round;stroke-linejoin:round;}
	.Resalte_x0020_cromado{fill:url(#SVGID_1_);stroke:#FFFFFF;stroke-width:0.3629;stroke-miterlimit:1;}
	.A_x0020_todo_x0020_ritmo_GS{fill:#FFDD00;}
	.Alyssa_GS{fill:#A6D0E4;}
	.st0{fill:#1ED760;}
</style>
<linearGradient id="SVGID_1_" gradientUnits="userSpaceOnUse" x1="0" y1="0" x2="6.123234e-17" y2="-1">
	<stop  offset="0" style="stop-color:#656565"/>
	<stop  offset="0.618" style="stop-color:#1B1B1B"/>
	<stop  offset="0.6292" style="stop-color:#545454"/>
	<stop  offset="0.9831" style="stop-color:#3E3E3E"/>
</linearGradient>
<g id="Capa_2">
</g>
<g id="Capa_1">
</g>
<g id="Capa_3">
	<g>
		<g id="XMLID_1_">
			<g>
				<path class="st0" d="M15.58,14.93c-3.02-1.8-6.57-1.87-10.04-1.11c-0.31,0.07-0.57,0.28-0.57,0.71c0,0.35,0.26,0.67,0.67,0.67
					c0.12,0,0.34-0.06,0.5-0.11c3.04-0.62,6.11-0.55,8.75,1.04c0.17,0.1,0.28,0.15,0.46,0.15c0.34,0,0.64-0.27,0.64-0.65
					S15.84,15.1,15.58,14.93z M16.49,13.51c0.46,0,0.81-0.37,0.82-0.83c0-0.37-0.14-0.63-0.48-0.83c-2.09-1.25-4.75-1.93-7.5-1.93
					c-1.76,0-2.96,0.25-4.14,0.58c-0.43,0.12-0.65,0.42-0.65,0.87c0,0.46,0.36,0.82,0.82,0.82c0.19,0,0.3-0.05,0.5-0.11
					c3.51-0.95,7.46-0.32,10.1,1.25C16.12,13.41,16.27,13.51,16.49,13.51z M18.78,9.29c0-0.5-0.21-0.76-0.55-0.95
					c-2.36-1.38-5.6-2.03-8.69-2.03c-1.82,0-3.49,0.21-4.98,0.65C4.18,7.07,3.83,7.39,3.83,7.97c0,0.56,0.42,1,0.98,1
					c0.21,0,0.4-0.07,0.55-0.11c3.49-0.98,8.88-0.55,11.89,1.25c0.19,0.11,0.33,0.17,0.55,0.17C18.31,10.28,18.78,9.87,18.78,9.29z
					 M11.08,0.83c5.8,0,10.5,4.7,10.5,10.5s-4.7,10.5-10.5,10.5s-10.5-4.7-10.5-10.5S5.28,0.83,11.08,0.83z"/>
			</g>
			<g>
			</g>
		</g>
	</g>
</g>
</svg>
