<?xml version="1.0" encoding="utf-8"?>
<!-- Generator: Adobe Illustrator 24.0.1, SVG Export Plug-In . SVG Version: 6.00 Build 0)  -->
<svg version="1.1" id="Capa_1" xmlns="http://www.w3.org/2000/svg" xmlns:xlink="http://www.w3.org/1999/xlink" x="0px" y="0px"
	 width="22px" height="22px" viewBox="0 0 22 22" style="enable-background:new 0 0 22 22;" xml:space="preserve">
<style type="text/css">
	.Sombra_x0020_paralela{fill:none;}
	.Resplandor_x0020_externo_x0020_5_x0020_pt_x002E_{fill:none;}
	.Neón_x0020_azul{fill:none;stroke:#89ABD9;stroke-width:7;stroke-linecap:round;stroke-linejoin:round;}
	.Resalte_x0020_cromado{fill:url(#SVGID_1_);stroke:#FFFFFF;stroke-width:0.3629;stroke-miterlimit:1;}
	.A_x0020_todo_x0020_ritmo_GS{fill:#FFDC00;}
	.Alyssa_GS{fill:#A5CFE3;}
	.st0{fill:#231F20;}
</style>
<linearGradient id="SVGID_1_" gradientUnits="userSpaceOnUse" x1="0" y1="0" x2="6.123234e-17" y2="-1">
	<stop  offset="0" style="stop-color:#656565"/>
	<stop  offset="0.618" style="stop-color:#1B1B1B"/>
	<stop  offset="0.6292" style="stop-color:#545454"/>
	<stop  offset="0.9831" style="stop-color:#3E3E3E"/>
</linearGradient>
<g>
	<g>
		<path class="st0" d="M10.865,0.333c-5.576,0-10.144,4.299-10.578,9.763l5.689,2.352c0.482-0.33,1.064-0.522,1.691-0.522
			c0.056,0,0.112,0.002,0.168,0.005l2.53-3.667c0-0.017,0-0.034,0-0.052c0-2.207,1.796-4.003,4.003-4.003
			c2.207,0,4.003,1.796,4.003,4.003c0,2.207-1.796,4.003-4.003,4.003c-0.031,0-0.061-0.001-0.091-0.002l-3.608,2.575
			c0.002,0.047,0.003,0.095,0.003,0.142c0,1.657-1.348,3.005-3.005,3.005c-1.454,0-2.67-1.038-2.946-2.413l-4.069-1.682
			c1.26,4.455,5.353,7.722,10.212,7.722c5.862,0,10.614-4.753,10.614-10.614C21.479,5.085,16.727,0.333,10.865,0.333z"/>
		<path class="st0" d="M6.939,16.439l-1.304-0.539c0.231,0.481,0.631,0.884,1.162,1.105c1.147,0.478,2.47-0.066,2.948-1.215
			c0.231-0.556,0.233-1.169,0.003-1.725c-0.229-0.557-0.662-0.991-1.218-1.223c-0.552-0.23-1.143-0.221-1.662-0.025l1.347,0.557
			c0.846,0.353,1.246,1.325,0.894,2.171C8.757,16.392,7.785,16.792,6.939,16.439z"/>
		<path class="st0" d="M17.035,8.212c0-1.471-1.197-2.667-2.667-2.667S11.7,6.741,11.7,8.212s1.197,2.667,2.667,2.667
			S17.035,9.683,17.035,8.212z M12.368,8.207c0-1.107,0.897-2.004,2.004-2.004c1.107,0,2.004,0.897,2.004,2.004
			c0,1.107-0.897,2.004-2.004,2.004C13.265,10.211,12.368,9.314,12.368,8.207z"/>
	</g>
</g>
</svg>
