
<svg xmlns="http://www.w3.org/2000/svg" version="1.1" xmlns:xlink="http://www.w3.org/1999/xlink" preserveAspectRatio="none" x="0px" y="0px" width="19px" height="19px" viewBox="0 0 19 19">
<defs>
<g id="Layer0_0_FILL">
<path fill="#FFCC00" stroke="none" d="
M 1 9.65
L 3.8 7.2 6.45 9.7 3.8 7 1 9.65
M 12.45 9.5
L 15.15 12.15 18 9.5
Q 18 5.95 15.5 3.45 13 1 9.5 1 5.95 1 3.45 3.45 1 5.95 1 9.5 1 9.55 1 9.65
L 3.8 7 6.45 9.7
Q 6.4 9.6 6.45 9.55 6.4 8.3 7.3 7.45 8.15 6.55 9.45 6.55 10.65 6.55 11.55 7.45 12.4 8.3 12.45 9.5 Z"/>

<path fill="#000099" stroke="none" d="
M 12.45 9.8
L 15.15 12.35 18 9.8
Q 18 9.65 18 9.5
L 15.15 12.15 12.45 9.5 12.45 9.55
Q 12.45 9.65 12.45 9.8
M 12.45 9.8
Q 12.3 10.9 11.55 11.65 10.65 12.55 9.45 12.55 8.15 12.55 7.3 11.65 6.45 10.85 6.45 9.7
L 3.8 7.2 1 9.65
Q 1.05 13.05 3.45 15.5 5.95 18 9.5 18 13 18 15.5 15.5 17.85 13.1 18 9.8
L 15.15 12.35 12.45 9.8 Z"/>
</g>

<path id="Layer0_0_1_STROKES" stroke="#000000" stroke-width="1" stroke-linejoin="round" stroke-linecap="round" fill="none" d="
M 12.45 9.8
Q 12.3 10.9 11.55 11.65 10.65 12.55 9.45 12.55 8.15 12.55 7.3 11.65 6.45 10.85 6.45 9.7
M 1 9.65
Q 1.05 13.05 3.45 15.5 5.95 18 9.5 18 13 18 15.5 15.5 17.85 13.1 18 9.8
L 15.15 12.35 12.45 9.8
Q 12.45 9.65 12.45 9.55
M 12.45 9.5
Q 12.4 8.3 11.55 7.45 10.65 6.55 9.45 6.55 8.15 6.55 7.3 7.45 6.4 8.3 6.45 9.55 6.4 9.6 6.45 9.7
L 3.8 7 1 9.65
Q 1 9.55 1 9.5 1 5.95 3.45 3.45 5.95 1 9.5 1 13 1 15.5 3.45 18 5.95 18 9.5 18 9.65 18 9.8"/>
</defs>

<g transform="matrix( 1, 0, 0, 1, 0,0) ">
<use xlink:href="#Layer0_0_FILL"/>

<use xlink:href="#Layer0_0_1_STROKES"/>
</g>
</svg>
